<svg width="32" height="32" viewBox="0 0 32 32" fill="none" xmlns="http://www.w3.org/2000/svg">
<path d="M32 16C32 7.16326 24.8367 0 16 0C7.16326 0 0 7.16326 0 16C0 23.9858 5.85007 30.6062 13.4993 31.8056V20.6246H9.43644V16H13.4993V12.4753C13.4993 8.46459 15.8886 6.25067 19.5437 6.25067C21.2954 6.25067 23.1253 6.56356 23.1253 6.56356V10.5007H21.1081C19.1218 10.5007 18.5007 11.7333 18.5007 12.9991V16H22.9381L22.2293 20.6246H18.5007V31.8056C26.1499 30.6062 32 23.9858 32 16Z" fill="#F1E9E1"/>
<path d="M22.227 20.6245L22.9357 15.9999H18.4984V12.9991C18.4984 11.7333 19.117 10.5007 21.1058 10.5007H23.123V6.5635C23.123 6.5635 21.293 6.25061 19.5413 6.25061C15.8862 6.25061 13.4969 8.46454 13.4969 12.4752V15.9999H9.43408V20.6245H13.4969V31.8056C14.3123 31.9336 15.1467 31.9999 15.9976 31.9999C16.8486 31.9999 17.683 31.9336 18.4984 31.8056V20.6245H22.227Z" fill="#56402A"/>
</svg>
