<svg width="158" height="40" viewBox="0 0 158 40" fill="none" xmlns="http://www.w3.org/2000/svg">
<path d="M8.50394 21.7964V36.1902C8.50394 38.2931 6.59905 40 4.25197 40C1.90488 40 0 38.2931 0 36.1902L0.0170075 27.6026L8.50394 21.7964Z" fill="white"/>
<path d="M30 1.4445C30 1.84407 29.8377 2.2052 29.575 2.46642C29.5285 2.51253 29.4744 2.55863 29.4203 2.60474L0 24.9102V0H28.5472C28.9491 0 29.3121 0.161365 29.575 0.422586C29.8377 0.683832 30 1.04496 30 1.4445Z" fill="white"/>
<path d="M23.0313 18.2036C19.1838 18.2036 16.0628 21.1536 16.0628 24.7904C16.0628 28.4273 19.1838 31.3773 23.0313 31.3773C26.8789 31.3773 29.9998 28.4273 29.9998 24.7904C29.9998 21.1536 26.8876 18.2036 23.0313 18.2036ZM23.0313 28.3385C20.9535 28.3385 19.2778 26.7543 19.2778 24.7904C19.2778 22.8266 20.962 21.2424 23.0313 21.2424C25.1006 21.2424 26.7849 22.8345 26.7849 24.7904C26.7849 26.7464 25.1091 28.3385 23.0313 28.3385Z" fill="white"/>
<g filter="url(#filter0_i_148_3076)">
<path d="M65.6323 6.57758C62.2178 6.57758 59.639 7.36204 57.8962 8.93063C56.1889 10.4635 55.3351 12.7095 55.3351 15.6685V19.9465H72.408V24.5455H55.3351V39.6791H50V15.6149C50 11.3012 51.3516 7.93229 54.0549 5.50816C56.7935 3.04819 60.5995 1.81824 65.4723 1.81824C67.6063 1.81824 69.598 2.06779 71.4475 2.5669C73.2974 3.03037 74.8979 3.72554 76.2493 4.65262L74.4887 9.09097C72.1057 7.41526 69.1535 6.57758 65.6323 6.57758Z" fill="white"/>
<path d="M90.5176 40C87.7787 40 85.6625 39.2512 84.1686 37.754C82.6747 36.2212 81.9276 34.082 81.9276 31.3369V0H87.0494V30.9091C87.0494 32.442 87.4053 33.6185 88.1165 34.4383C88.8637 35.2585 89.966 35.6684 91.4244 35.6684C92.3137 35.6684 93.1494 35.4902 93.9321 35.1336L94.1988 39.3583C93.0249 39.7861 91.7978 40 90.5176 40Z" fill="white"/>
<path d="M111.301 35.508C114.68 35.508 117.401 34.3672 119.464 32.0855L122.238 35.4009C120.993 36.8984 119.41 38.0392 117.49 38.8234C115.605 39.6078 113.488 39.9999 111.141 39.9999C108.153 39.9999 105.503 39.394 103.191 38.1817C100.879 36.9338 99.0832 35.2049 97.8027 32.9946C96.5577 30.7844 95.9354 28.2888 95.9354 25.508C95.9354 22.7629 96.54 20.2852 97.7494 18.0746C98.9943 15.8644 100.684 14.1533 102.818 12.9411C104.987 11.6935 107.424 11.0693 110.127 11.0693C112.688 11.0693 115.018 11.6578 117.116 12.8343C119.215 13.9751 120.886 15.5969 122.131 17.7004C123.376 19.8039 124.016 22.228 124.052 24.9731L101.591 29.3583C102.302 31.3189 103.493 32.8343 105.165 33.9037C106.873 34.9731 108.918 35.508 111.301 35.508ZM110.127 15.4009C108.349 15.4009 106.748 15.8108 105.325 16.631C103.938 17.4508 102.853 18.6095 102.071 20.107C101.288 21.5685 100.897 23.2799 100.897 25.2406V25.7754L118.984 22.353C118.521 20.2852 117.49 18.6095 115.889 17.3262C114.288 16.0426 112.368 15.4009 110.127 15.4009Z" fill="white"/>
<path d="M143.328 39.9999C140.518 39.9999 137.993 39.3761 135.752 38.1282C133.511 36.8806 131.751 35.1692 130.47 32.9946C129.225 30.7844 128.603 28.2888 128.603 25.508C128.603 22.7272 129.225 20.2495 130.47 18.0746C131.751 15.8644 133.511 14.1533 135.752 12.9411C137.993 11.6935 140.518 11.0693 143.328 11.0693C146.138 11.0693 148.645 11.6935 150.851 12.9411C153.092 14.1533 154.834 15.8644 156.079 18.0746C157.36 20.2495 158 22.7272 158 25.508C158 28.2888 157.36 30.7844 156.079 32.9946C154.834 35.1692 153.092 36.8806 150.851 38.1282C148.645 39.3761 146.138 39.9999 143.328 39.9999ZM143.328 35.508C145.142 35.508 146.76 35.0981 148.183 34.2779C149.641 33.4224 150.779 32.2459 151.598 30.7487C152.416 29.2154 152.825 27.4687 152.825 25.508C152.825 23.547 152.416 21.8181 151.598 20.3209C150.779 18.7877 149.641 17.6115 148.183 16.7913C146.76 15.9715 145.142 15.5616 143.328 15.5616C141.514 15.5616 139.878 15.9715 138.42 16.7913C136.997 17.6115 135.859 18.7877 135.005 20.3209C134.187 21.8181 133.778 23.547 133.778 25.508C133.778 27.4687 134.187 29.2154 135.005 30.7487C135.859 32.2459 136.997 33.4224 138.42 34.2779C139.878 35.0981 141.514 35.508 143.328 35.508Z" fill="white"/>
</g>
<defs>
<filter id="filter0_i_148_3076" x="50" y="0" width="108" height="44" filterUnits="userSpaceOnUse" color-interpolation-filters="sRGB">
<feFlood flood-opacity="0" result="BackgroundImageFix"/>
<feBlend mode="normal" in="SourceGraphic" in2="BackgroundImageFix" result="shape"/>
<feColorMatrix in="SourceAlpha" type="matrix" values="0 0 0 0 0 0 0 0 0 0 0 0 0 0 0 0 0 0 127 0" result="hardAlpha"/>
<feOffset dy="4"/>
<feGaussianBlur stdDeviation="2.5"/>
<feComposite in2="hardAlpha" operator="arithmetic" k2="-1" k3="1"/>
<feColorMatrix type="matrix" values="0 0 0 0 1 0 0 0 0 1 0 0 0 0 1 0 0 0 0.25 0"/>
<feBlend mode="normal" in2="shape" result="effect1_innerShadow_148_3076"/>
</filter>
</defs>
</svg>
