<svg width="32" height="32" viewBox="0 0 32 32" fill="none" xmlns="http://www.w3.org/2000/svg">
<path d="M16 32C24.8366 32 32 24.8366 32 16C32 7.16344 24.8366 0 16 0C7.16344 0 0 7.16344 0 16C0 24.8366 7.16344 32 16 32Z" fill="#F1E9E1"/>
<path d="M17.2397 13.8169C17.5028 13.5206 17.7185 13.2219 17.9888 12.9683C18.8184 12.186 19.7997 11.7926 20.947 11.802C21.5775 11.8068 22.1985 11.8518 22.8053 12.0272C24.1944 12.4278 25.0003 13.3855 25.3867 14.7413C25.6759 15.7582 25.728 16.8035 25.7304 17.8512C25.7351 20.0604 25.7233 22.272 25.7304 24.4812C25.7304 24.6874 25.6735 24.7419 25.4696 24.7419C24.3319 24.7324 23.1917 24.7324 22.0539 24.7419C21.8525 24.7419 21.8098 24.6826 21.8098 24.493C21.8169 22.3905 21.8169 20.288 21.8098 18.1831C21.8098 17.6569 21.7742 17.1283 21.6273 16.6163C21.3547 15.6729 20.6791 15.1917 19.6907 15.2438C18.3396 15.3149 17.6379 15.9834 17.4673 17.3558C17.427 17.6829 17.4056 18.0124 17.408 18.3419C17.408 20.3875 17.408 22.4332 17.4128 24.4788C17.4128 24.6826 17.363 24.7419 17.1544 24.7419C16.0071 24.7324 14.8599 24.7324 13.7126 24.7419C13.5277 24.7419 13.4756 24.6945 13.4756 24.5072C13.4803 20.4586 13.4803 16.4077 13.4756 12.3591C13.4756 12.1576 13.5419 12.1126 13.7316 12.1126C14.8196 12.1197 15.9099 12.122 16.9979 12.1126C17.1994 12.1126 17.2492 12.1766 17.2468 12.3662C17.235 12.8498 17.2421 13.3333 17.2421 13.8192L17.2397 13.8169Z" fill="#56402A"/>
<path d="M11.0009 18.4462C11.0009 20.4491 10.9985 22.4521 11.0056 24.4551C11.0056 24.6779 10.9511 24.7443 10.7212 24.7419C9.5834 24.73 8.44562 24.7324 7.30547 24.7419C7.12295 24.7419 7.06844 24.6968 7.06844 24.5096C7.07318 20.4539 7.07318 16.3982 7.06844 12.3401C7.06844 12.1718 7.10873 12.1125 7.28651 12.1125C8.44088 12.1197 9.59525 12.122 10.7496 12.1125C10.9724 12.1125 11.0009 12.1955 11.0009 12.3875C10.9961 14.4071 10.9985 16.4266 10.9985 18.4462H11.0009Z" fill="#56402A"/>
<path d="M11.3138 8.09244C11.3138 9.35111 10.2945 10.3751 9.03825 10.3751C7.79854 10.3751 6.7698 9.35111 6.76506 8.1114C6.76032 6.85985 7.78906 5.82874 9.04299 5.82874C10.2874 5.82874 11.3114 6.85037 11.3138 8.09007V8.09244Z" fill="#56402A"/>
</svg>
