<svg width="105" height="33" viewBox="0 0 105 33" fill="none" xmlns="http://www.w3.org/2000/svg">
    <path
        d="M7.16502 17.9819V29.8568C7.16502 31.5918 5.56005 32.9999 3.58251 32.9999C1.60496 32.9999 0 31.5918 0 29.8568L0.0143298 22.7721L7.16502 17.9819Z"
        fill="url(#paint0_linear_0_1)" />
    <path
        d="M25.2766 1.19172C25.2766 1.52136 25.1399 1.81929 24.9185 2.0348C24.8793 2.07284 24.8338 2.11088 24.7882 2.14891L0 20.5509V0H24.0526C24.3911 0 24.697 0.133126 24.9185 0.348634C25.1399 0.564162 25.2766 0.862091 25.2766 1.19172Z"
        fill="url(#paint1_linear_0_1)" />
    <path
        d="M19.4051 15.0181C16.1634 15.0181 13.5338 17.4518 13.5338 20.4522C13.5338 23.4526 16.1634 25.8863 19.4051 25.8863C22.6469 25.8863 25.2765 23.4526 25.2765 20.4522C25.2765 17.4518 22.6543 15.0181 19.4051 15.0181ZM19.4051 23.3793C17.6545 23.3793 16.2426 22.0724 16.2426 20.4522C16.2426 18.832 17.6617 17.5251 19.4051 17.5251C21.1486 17.5251 22.5677 18.8386 22.5677 20.4522C22.5677 22.0658 21.1558 23.3793 19.4051 23.3793Z"
        fill="url(#paint2_linear_0_1)" />
    <g filter="url(#filter0_i_0_1)">
        <path
            d="M49.4084 7.94642C47.3533 7.94642 45.8013 8.4171 44.7523 9.35826C43.7248 10.278 43.211 11.6256 43.211 13.401V15.9678H53.4863V18.7272H43.211V27.8073H40V13.3688C40 10.7806 40.8135 8.75925 42.4405 7.30477C44.0887 5.82879 46.3793 5.09082 49.3121 5.09082C50.5964 5.09082 51.7951 5.24055 52.9083 5.54002C54.0216 5.8181 54.9849 6.2352 55.7982 6.79145L54.7386 9.45446C53.3044 8.44904 51.5276 7.94642 49.4084 7.94642Z"
            fill="#2A52E0" />
        <path
            d="M64.3857 28C62.7373 28 61.4637 27.5507 60.5646 26.6524C59.6655 25.7327 59.2158 24.4492 59.2158 22.8021V4H62.2984V22.5455C62.2984 23.4652 62.5126 24.1711 62.9406 24.663C63.3903 25.1551 64.0538 25.4011 64.9315 25.4011C65.4667 25.4011 65.9697 25.2941 66.4407 25.0801L66.6013 27.615C65.8948 27.8717 65.1562 28 64.3857 28Z"
            fill="#2A52E0" />
        <path
            d="M76.894 25.3048C78.9278 25.3048 80.5653 24.6203 81.8071 23.2513L83.4767 25.2405C82.7274 26.1391 81.7748 26.8236 80.6188 27.294C79.4843 27.7647 78.2107 27.9999 76.7977 27.9999C74.9995 27.9999 73.4048 27.6364 72.0133 26.909C70.6219 26.1603 69.5409 25.1229 68.7702 23.7968C68.0209 22.4706 67.6464 20.9733 67.6464 19.3048C67.6464 17.6577 68.0102 16.1711 68.7381 14.8448C69.4874 13.5186 70.5042 12.492 71.7885 11.7646C73.0943 11.0161 74.5607 10.6416 76.1877 10.6416C77.7289 10.6416 79.1312 10.9947 80.3941 11.7006C81.6571 12.3851 82.6632 13.3582 83.4125 14.6202C84.1617 15.8823 84.547 17.3368 84.5684 18.9839L71.0499 21.615C71.4782 22.7914 72.1952 23.7006 73.2015 24.3422C74.229 24.9839 75.4598 25.3048 76.894 25.3048ZM76.1877 13.2405C75.1174 13.2405 74.1541 13.4865 73.2978 13.9786C72.4629 14.4705 71.8099 15.1657 71.3391 16.0642C70.868 16.9411 70.6326 17.9679 70.6326 19.1443V19.4653L81.5179 17.4118C81.2397 16.1711 80.6188 15.1657 79.6555 14.3957C78.6922 13.6255 77.5363 13.2405 76.1877 13.2405Z"
            fill="#2A52E0" />
        <path
            d="M96.1699 27.9999C94.4787 27.9999 92.9587 27.6257 91.6102 26.8769C90.2616 26.1283 89.202 25.1015 88.4313 23.7968C87.682 22.4706 87.3075 20.9733 87.3075 19.3048C87.3075 17.6363 87.682 16.1497 88.4313 14.8448C89.202 13.5186 90.2616 12.492 91.6102 11.7646C92.9587 11.0161 94.4787 10.6416 96.1699 10.6416C97.8611 10.6416 99.3702 11.0161 100.698 11.7646C102.046 12.492 103.095 13.5186 103.844 14.8448C104.615 16.1497 105 17.6363 105 19.3048C105 20.9733 104.615 22.4706 103.844 23.7968C103.095 25.1015 102.046 26.1283 100.698 26.8769C99.3702 27.6257 97.8611 27.9999 96.1699 27.9999ZM96.1699 25.3048C97.2616 25.3048 98.2356 25.0589 99.0919 24.5668C99.9696 24.0534 100.655 23.3475 101.147 22.4492C101.639 21.5293 101.886 20.4812 101.886 19.3048C101.886 18.1282 101.639 17.0909 101.147 16.1925C100.655 15.2726 99.9696 14.5669 99.0919 14.0748C98.2356 13.5829 97.2616 13.3369 96.1699 13.3369C95.0782 13.3369 94.0935 13.5829 93.2158 14.0748C92.3595 14.5669 91.6744 15.2726 91.1607 16.1925C90.6683 17.0909 90.4222 18.1282 90.4222 19.3048C90.4222 20.4812 90.6683 21.5293 91.1607 22.4492C91.6744 23.3475 92.3595 24.0534 93.2158 24.5668C94.0935 25.0589 95.0782 25.3048 96.1699 25.3048Z"
            fill="#2A52E0" />
    </g>
    <defs>
        <filter id="filter0_i_0_1" x="40" y="4" width="65.0002" height="28" filterUnits="userSpaceOnUse"
            color-interpolation-filters="sRGB">
            <feFlood flood-opacity="0" result="BackgroundImageFix" />
            <feBlend mode="normal" in="SourceGraphic" in2="BackgroundImageFix" result="shape" />
            <feColorMatrix in="SourceAlpha" type="matrix" values="0 0 0 0 0 0 0 0 0 0 0 0 0 0 0 0 0 0 127 0"
                result="hardAlpha" />
            <feOffset dy="4" />
            <feGaussianBlur stdDeviation="2.5" />
            <feComposite in2="hardAlpha" operator="arithmetic" k2="-1" k3="1" />
            <feColorMatrix type="matrix" values="0 0 0 0 1 0 0 0 0 1 0 0 0 0 1 0 0 0 0.25 0" />
            <feBlend mode="normal" in2="shape" result="effect1_innerShadow_0_1" />
        </filter>
        <linearGradient id="paint0_linear_0_1" x1="3.58251" y1="19.2581" x2="3.58251" y2="32.9999"
            gradientUnits="userSpaceOnUse">
            <stop offset="0.21875" stop-color="#2951E0" />
            <stop offset="1" stop-color="#FA7D7F" />
        </linearGradient>
        <linearGradient id="paint1_linear_0_1" x1="21.8581" y1="0" x2="1.02221" y2="0" gradientUnits="userSpaceOnUse">
            <stop stop-color="#2951E0" />
            <stop offset="1" stop-color="#8BA5FF" />
        </linearGradient>
        <linearGradient id="paint2_linear_0_1" x1="19.4087" y1="15.0438" x2="19.4087" y2="25.6555"
            gradientUnits="userSpaceOnUse">
            <stop stop-color="#143AC4" />
            <stop offset="0.9926" stop-color="#FA7D7F" />
        </linearGradient>
    </defs>
</svg>