<svg width="58" height="42" viewBox="0 0 58 42" fill="none" xmlns="http://www.w3.org/2000/svg">
    <path
        d="M54.477 3.95596C56.8343 6.31926 58 9.65871 58 13.9486C58 22.2202 52.0161 31.545 40.0741 42L35.8258 37.5303C40.0741 33.1376 43.2863 29.3615 45.4364 26.2018C47.6123 23.0422 48.7262 19.9339 48.8298 16.8514C47.4051 17.3908 45.4623 17.6477 43.0013 17.6477C40.0741 17.6477 37.6391 16.8514 35.6963 15.2844C33.7535 13.6917 32.7691 11.6881 32.7691 9.22202C32.7691 6.49908 33.9089 4.34128 36.2144 2.77431C38.5199 1.20734 41.3953 0.411007 44.8406 0.411007C48.9075 0.411007 52.1197 1.59266 54.4511 3.95596H54.477ZM21.8374 3.62202C24.1947 6.0367 25.3604 9.40183 25.3604 13.6917C25.3604 17.9816 23.7544 22.5028 20.594 27.255C17.4078 31.9817 13.0299 36.7853 7.46047 41.589L3.21215 37.1193C7.53819 32.5468 10.7762 28.7706 12.9004 25.7395C15.0246 22.7083 16.1385 19.6257 16.2162 16.4661C14.7137 17.0826 12.7709 17.3908 10.3877 17.3908C7.46048 17.3908 4.99955 16.5688 3.03082 14.9505C1.03618 13.3321 0.0518074 11.3284 0.0518074 8.96514C0.0518074 6.34496 1.21751 4.18716 3.57481 2.51743C5.93211 0.847706 8.7816 0.0256882 12.1233 0.0256882C16.2939 0.0256882 19.5319 1.23302 21.8892 3.64771L21.8374 3.62202Z"
        fill="#DF581E" />
</svg>