<svg width="32" height="32" viewBox="0 0 32 32" fill="none" xmlns="http://www.w3.org/2000/svg">
<path d="M16 32C24.8366 32 32 24.8366 32 16C32 7.16344 24.8366 0 16 0C7.16344 0 0 7.16344 0 16C0 24.8366 7.16344 32 16 32Z" fill="#F1E9E1"/>
<path d="M12.7668 25.2137C20.5819 25.2137 24.8557 18.7402 24.8557 13.1248C24.8557 12.9399 24.851 12.7574 24.8439 12.5748C25.6735 11.9751 26.3941 11.2261 26.963 10.3751C26.2021 10.7141 25.3819 10.9417 24.5239 11.0436C25.4009 10.5174 26.0741 9.68537 26.3917 8.69455C25.5716 9.18048 24.6613 9.53603 23.6942 9.72566C22.9191 8.90077 21.8145 8.38403 20.5938 8.38403C18.2471 8.38403 16.3437 10.2874 16.3437 12.6317C16.3437 12.966 16.3816 13.2883 16.4551 13.6012C12.9233 13.4234 9.79201 11.7334 7.69898 9.16152C7.33394 9.78966 7.12298 10.5197 7.12298 11.2972C7.12298 12.7716 7.87201 14.0729 9.01453 14.8338C8.31764 14.8125 7.66342 14.6205 7.08979 14.3028C7.08979 14.3194 7.08979 14.3384 7.08979 14.3574C7.08979 16.4148 8.55468 18.1334 10.4984 18.5221C10.1405 18.6193 9.76593 18.6714 9.37956 18.6714C9.10697 18.6714 8.83912 18.6454 8.58075 18.5956C9.12119 20.2833 10.6904 21.5111 12.5487 21.5467C11.0933 22.6868 9.26342 23.3648 7.27231 23.3648C6.92861 23.3648 6.59201 23.3458 6.25779 23.3055C8.13749 24.5097 10.3704 25.2137 12.7692 25.2137" fill="#56402A"/>
</svg>
