<svg width="24" height="19" viewBox="0 0 24 19" fill="none" xmlns="http://www.w3.org/2000/svg">
<path d="M1.90909 19C1.38182 19 0.931818 18.811 0.559091 18.433C0.186364 18.0551 0 17.5987 0 17.064C0 16.5294 0.186364 16.073 0.559091 15.6951C0.931818 15.3171 1.38182 15.1281 1.90909 15.1281C2 15.1281 2.09091 15.1327 2.18182 15.1419C2.27273 15.1511 2.39091 15.1742 2.53636 15.2111L7.99091 9.67977C7.95455 9.53227 7.93182 9.41242 7.92273 9.32023C7.91364 9.22805 7.90909 9.13586 7.90909 9.04367C7.90909 8.50898 8.09546 8.05264 8.46818 7.67467C8.84091 7.2967 9.29091 7.10772 9.81818 7.10772C10.3455 7.10772 10.7955 7.2967 11.1682 7.67467C11.5409 8.05264 11.7273 8.50898 11.7273 9.04367C11.7273 9.08054 11.7 9.29258 11.6455 9.67977L14.6455 12.722C14.7909 12.6851 14.9091 12.6621 15 12.6528C15.0909 12.6436 15.1818 12.639 15.2727 12.639C15.3636 12.639 15.4545 12.6436 15.5455 12.6528C15.6364 12.6621 15.7545 12.6851 15.9 12.722L20.2636 8.29694C20.2273 8.14944 20.2045 8.0296 20.1955 7.93741C20.1864 7.84522 20.1818 7.75303 20.1818 7.66084C20.1818 7.12615 20.3682 6.66982 20.7409 6.29185C21.1136 5.91388 21.5636 5.72489 22.0909 5.72489C22.6182 5.72489 23.0682 5.91388 23.4409 6.29185C23.8136 6.66982 24 7.12615 24 7.66084C24 8.19554 23.8136 8.65187 23.4409 9.02984C23.0682 9.40781 22.6182 9.5968 22.0909 9.5968C22 9.5968 21.9091 9.59219 21.8182 9.58297C21.7273 9.57375 21.6091 9.5507 21.4636 9.51383L17.1 13.9389C17.1364 14.0864 17.1591 14.2062 17.1682 14.2984C17.1773 14.3906 17.1818 14.4828 17.1818 14.575C17.1818 15.1097 16.9955 15.566 16.6227 15.944C16.25 16.3219 15.8 16.5109 15.2727 16.5109C14.7455 16.5109 14.2955 16.3219 13.9227 15.944C13.55 15.566 13.3636 15.1097 13.3636 14.575C13.3636 14.4828 13.3682 14.3906 13.3773 14.2984C13.3864 14.2062 13.4091 14.0864 13.4455 13.9389L10.4455 10.8967C10.3 10.9335 10.1818 10.9566 10.0909 10.9658C10 10.975 9.90909 10.9796 9.81818 10.9796C9.78182 10.9796 9.57273 10.952 9.19091 10.8967L3.73636 16.4279C3.77273 16.5754 3.79545 16.6953 3.80455 16.7875C3.81364 16.8797 3.81818 16.9719 3.81818 17.064C3.81818 17.5987 3.63182 18.0551 3.25909 18.433C2.88636 18.811 2.43636 19 1.90909 19ZM8.98701 18.291L8.44156 17.0741L7.24156 16.521L8.44156 15.9678L8.98701 14.751L9.53247 15.9678L10.7325 16.521L9.53247 17.0741L8.98701 18.291ZM15.2727 5.36536L14.4273 3.54003L12.6273 2.68268L14.4273 1.82533L15.2727 0L16.1182 1.82533L17.9182 2.68268L16.1182 3.54003L15.2727 5.36536Z" fill="white"/>
</svg>
