<svg width="24" height="24" viewBox="0 0 24 24" fill="none" xmlns="http://www.w3.org/2000/svg">
<path d="M11.5449 18.57C12.8099 18.57 13.9743 18.215 15.038 17.505C16.1018 16.795 16.8733 15.83 17.3524 14.61H5.73742C6.23575 15.83 7.01201 16.795 8.06617 17.505C9.12034 18.215 10.2799 18.57 11.5449 18.57ZM6.42742 10.41L7.72117 9.06L9.01492 10.41L10.0499 9.33L7.72117 6.9L5.39242 9.33L6.42742 10.41ZM14.1037 10.41L15.3974 9.06L16.6912 10.41L17.7262 9.33L15.3974 6.9L13.0687 9.33L14.1037 10.41ZM11.5449 24C9.97326 24 8.48784 23.685 7.08867 23.055C5.68951 22.425 4.46763 21.565 3.42305 20.475C2.37846 19.385 1.5543 18.11 0.950547 16.65C0.346797 15.19 0.0449219 13.64 0.0449219 12C0.0449219 10.34 0.346797 8.78 0.950547 7.32C1.5543 5.86 2.37846 4.59 3.42305 3.51C4.46763 2.43 5.68951 1.575 7.08867 0.945C8.48784 0.315 9.97326 0 11.5449 0C13.1358 0 14.6308 0.315 16.0299 0.945C17.4291 1.575 18.6462 2.43 19.6812 3.51C20.7162 4.59 21.5355 5.86 22.1393 7.32C22.743 8.78 23.0449 10.34 23.0449 12C23.0449 13.64 22.743 15.19 22.1393 16.65C21.5355 18.11 20.7162 19.385 19.6812 20.475C18.6462 21.565 17.4291 22.425 16.0299 23.055C14.6308 23.685 13.1358 24 11.5449 24ZM11.5449 22.2C14.2666 22.2 16.5762 21.205 18.4737 19.215C20.3712 17.225 21.3199 14.82 21.3199 12C21.3199 9.16 20.3712 6.75 18.4737 4.77C16.5762 2.79 14.2666 1.8 11.5449 1.8C8.84242 1.8 6.53763 2.79 4.63055 4.77C2.72346 6.75 1.76992 9.16 1.76992 12C1.76992 14.82 2.72346 17.225 4.63055 19.215C6.53763 21.205 8.84242 22.2 11.5449 22.2Z" fill="white"/>
</svg>
