<svg width="24" height="18" viewBox="0 0 24 18" fill="none" xmlns="http://www.w3.org/2000/svg">
<path d="M1.67442 18C1.24651 18 0.860465 17.8266 0.516279 17.4797C0.172093 17.1328 0 16.7437 0 16.3125V1.6875C0 1.25625 0.172093 0.867188 0.516279 0.520313C0.860465 0.173438 1.24651 0 1.67442 0H9.51628L11.1907 1.6875H20.6512C21.0791 1.6875 21.4651 1.86094 21.8093 2.20781C22.1535 2.55469 22.3256 2.94375 22.3256 3.375H10.4651L8.7907 1.6875H1.67442V16.3125L4.52093 5.0625H24L21.014 16.7063C20.9023 17.1562 20.6977 17.4844 20.4 17.6906C20.1023 17.8969 19.7209 18 19.2558 18H1.67442ZM3.43256 16.3125H19.3953L21.7395 6.75H5.77674L3.43256 16.3125ZM3.43256 16.3125L5.77674 6.75L3.43256 16.3125ZM1.67442 3.375V1.6875V3.375Z" fill="white"/>
</svg>
