<svg width="32" height="32" viewBox="0 0 32 32" fill="none" xmlns="http://www.w3.org/2000/svg">
<path d="M16 32C24.8366 32 32 24.8366 32 16C32 7.16344 24.8366 0 16 0C7.16344 0 0 7.16344 0 16C0 24.8366 7.16344 32 16 32Z" fill="#F1E9E1"/>
<path fill-rule="evenodd" clip-rule="evenodd" d="M23.6966 8.50021C21.7813 6.58258 19.2308 5.52539 16.5167 5.52539C10.9227 5.52539 6.36919 10.0765 6.36682 15.6706C6.36682 17.4578 6.83379 19.2048 7.72268 20.7432L6.28386 26.0007L11.6646 24.5903C13.1461 25.3986 14.8172 25.8252 16.5144 25.8252H16.5191C22.1132 25.8252 26.6667 21.2741 26.669 15.6777C26.669 12.966 25.6142 10.4178 23.699 8.50021H23.6966ZM16.5167 24.1115H16.5144C14.9997 24.1115 13.5159 23.7038 12.2216 22.9358L11.9135 22.7532L8.72059 23.59L9.57393 20.4777L9.37244 20.1577C8.52859 18.8161 8.08296 17.2635 8.08296 15.6706C8.08296 11.0199 11.8685 7.2368 16.5239 7.2368C18.7781 7.2368 20.8948 8.1162 22.4877 9.70909C24.0806 11.3044 24.9576 13.4211 24.9553 15.6753C24.9553 20.326 21.1698 24.1091 16.5191 24.1091L16.5167 24.1115ZM21.1437 17.7944C20.8901 17.6664 19.6433 17.0549 19.411 16.9695C19.1787 16.8842 19.0104 16.8415 18.8397 17.0975C18.6714 17.3512 18.1855 17.9224 18.0362 18.0907C17.8892 18.259 17.7399 18.2804 17.4862 18.1547C17.2326 18.0267 16.4148 17.7612 15.4477 16.8961C14.6939 16.2229 14.1843 15.3932 14.0373 15.1396C13.8904 14.886 14.0207 14.7485 14.1487 14.6229C14.2625 14.5091 14.4024 14.3266 14.528 14.1796C14.6536 14.0326 14.6963 13.926 14.7816 13.7577C14.867 13.5894 14.8243 13.4401 14.7603 13.3144C14.6963 13.1864 14.189 11.9396 13.9781 11.4324C13.7718 10.9369 13.5633 11.0057 13.4068 10.9962C13.2599 10.9891 13.0892 10.9867 12.9209 10.9867C12.7526 10.9867 12.4776 11.0507 12.2453 11.3044C12.013 11.558 11.3588 12.1719 11.3588 13.4187C11.3588 14.6655 12.2667 15.8721 12.3947 16.0404C12.5203 16.2086 14.1819 18.771 16.7277 19.8685C17.3322 20.1292 17.8062 20.2857 18.1736 20.4018C18.7804 20.5938 19.3351 20.5678 19.7713 20.5014C20.2596 20.4279 21.2717 19.8875 21.4827 19.2949C21.6936 18.7023 21.6936 18.195 21.6296 18.0884C21.5656 17.9817 21.3973 17.9201 21.1437 17.7921V17.7944Z" fill="#56402A"/>
</svg>
